<svg width="61" height="94" viewBox="0 0 61 94" fill="none" xmlns="http://www.w3.org/2000/svg">
<path fill-rule="evenodd" clip-rule="evenodd" d="M23.6818 64.707C23.6818 62.9197 24.443 61.2813 25.6842 60.1063C26.9254 58.9314 28.6134 58.2032 30.5 58.2032C38.9235 58.2032 46.5361 54.943 52.0635 49.6804C57.5743 44.4178 61 37.1362 61 29.0933C61 21.0505 57.5909 13.7854 52.0635 8.50624C46.5361 3.26017 38.9069 0 30.5 0C22.0931 0 14.4474 3.26017 8.93652 8.52279C3.40912 13.7854 0 21.067 0 29.1099H3.6077C3.6077 22.0269 6.61964 15.6058 11.4851 10.9555C16.3505 6.30521 23.0695 3.44221 30.5 3.44221C37.9305 3.44221 44.6495 6.32176 49.5149 10.9555C54.3804 15.6058 57.3923 22.0103 57.3923 29.1099C57.3923 36.1929 54.3804 42.6139 49.5149 47.2642C44.6495 51.9145 37.9305 54.7775 30.5 54.7775C27.6205 54.7775 25.0222 55.8863 23.1356 57.6902C21.2491 59.494 20.0906 61.9764 20.0906 64.7235V74.6696H55.6381V71.2273H23.6818V64.7235V64.707Z" fill="#FFDA6F"/>
<path fill-rule="evenodd" clip-rule="evenodd" d="M16.9908 77.6014V64.7096C16.9908 61.1516 18.4968 57.9245 20.946 55.5911C23.3953 53.2576 26.7713 51.8179 30.4949 51.8179C37.0649 51.8179 43.0225 49.2693 47.3253 45.1651C51.6281 41.0609 54.2925 35.3681 54.2925 29.0959C54.2925 22.8238 51.6281 17.1475 47.3253 13.0268C43.0225 8.92259 37.0649 6.37402 30.4949 6.37402C23.9249 6.37402 17.9672 8.92259 13.6644 13.0268C9.36167 17.1309 6.69727 22.8238 6.69727 29.0959H10.305C10.305 23.7671 12.5722 18.9513 16.213 15.4595C19.8704 11.9676 24.9178 9.81624 30.4949 9.81624C36.0719 9.81624 41.1194 11.9676 44.7768 15.4595C48.4341 18.9513 50.6848 23.7671 50.6848 29.0959C50.6848 34.4248 48.4176 39.2405 44.7768 42.7324C41.1194 46.2243 36.0719 48.3756 30.4949 48.3756C25.7784 48.3756 21.4922 50.196 18.3975 53.1583C15.3028 56.1206 13.3831 60.1917 13.3831 64.7096V81.0436H55.6164V77.6014H16.9908Z" fill="#FFDA6F"/>
<path fill-rule="evenodd" clip-rule="evenodd" d="M10.2918 83.9881V64.7084C10.2918 59.3796 12.559 54.5638 16.1998 51.0719C19.8572 47.5801 24.9046 45.4287 30.4817 45.4287C35.1982 45.4287 39.4844 43.6083 42.5791 40.646C45.6738 37.6837 47.5935 33.6126 47.5935 29.0947C47.5935 24.5768 45.6738 20.5057 42.5791 17.5434C39.4844 14.5811 35.2147 12.7607 30.4817 12.7607C25.7486 12.7607 21.479 14.5811 18.3843 17.5434C15.2896 20.5057 13.3699 24.5768 13.3699 29.0947H16.9776C16.9776 25.5367 18.4836 22.3096 20.9329 19.9762C23.3821 17.6427 26.7581 16.203 30.4817 16.203C34.2052 16.203 37.5813 17.6427 40.0305 19.9762C42.4798 22.3096 43.9858 25.5367 43.9858 29.0947C43.9858 32.6528 42.4798 35.8798 40.0305 38.2133C37.5813 40.5467 34.2052 41.9865 30.4817 41.9865C23.9117 41.9865 17.954 44.535 13.6513 48.6392C9.34849 52.7434 6.68408 58.4363 6.68408 64.7084V87.4303H55.6198V83.9881H10.2918Z" fill="#FFDA6F"/>
<path fill-rule="evenodd" clip-rule="evenodd" d="M3.60385 90.3748V64.7071C3.60385 57.6241 6.61579 51.2031 11.4812 46.5528C16.3467 41.9025 23.0656 39.0395 30.4961 39.0395C33.3757 39.0395 35.9739 37.9307 37.8605 36.1268C39.7471 34.323 40.9055 31.8406 40.9055 29.0935C40.9055 26.3463 39.7471 23.864 37.8605 22.0601C35.9739 20.2563 33.3757 19.1475 30.4961 19.1475C27.6166 19.1475 25.0184 20.2563 23.1318 22.0601C21.2452 23.864 20.0868 26.3463 20.0868 29.0935H23.6945C23.6945 27.3062 24.4557 25.6678 25.6969 24.4928C26.9215 23.3178 28.6261 22.5897 30.5127 22.5897C32.3993 22.5897 34.1039 23.3178 35.3285 24.4928C36.5531 25.6678 37.3309 27.2896 37.3309 29.0935C37.3309 30.8973 36.5697 32.5191 35.3285 33.6941C34.1039 34.8691 32.3993 35.5973 30.5127 35.5973C22.0892 35.5973 14.4766 38.8574 8.94921 44.1201C3.43836 49.3827 0.0126953 56.6643 0.0126953 64.7071V93.817H55.6342V90.3748H3.60385Z" fill="#FFDA6F"/>
</svg>
