<svg width="61" height="102" viewBox="0 0 61 102" fill="none" xmlns="http://www.w3.org/2000/svg">
<g clip-path="url(#clip0_8049_2330)">
<path d="M49.5478 10.6495V101.647H53.3312V6.91992H34.3427C26.9373 6.91992 20.2492 9.68124 15.39 14.128C10.5487 18.5748 7.53638 24.743 7.53638 31.5387H11.5887C11.5887 25.765 14.1348 20.5472 18.241 16.7638C22.3471 12.9805 28.049 10.6495 34.3247 10.6495H49.5299H49.5478Z" fill="#FFC670"/>
<path d="M34.3372 0C24.8519 0 16.281 3.53233 10.0591 9.23427C3.83715 14.9362 0 22.8257 0 31.54H4.05232C4.05232 23.8657 7.44121 16.9086 12.9101 11.8701C18.3968 6.83157 25.9636 3.72957 34.3192 3.72957H56.9297V101.649H60.9821V0H34.3192H34.3372Z" fill="#FFECB2"/>
<path d="M34.336 20.7607C31.0906 20.7607 28.1679 21.9621 26.0521 23.9165C23.9362 25.871 22.6094 28.5606 22.6094 31.5371H26.6617C26.6617 29.6005 27.5224 27.8254 28.903 26.5523C30.2837 25.2793 32.2023 24.4903 34.3181 24.4903V101.646H38.3704V20.7607H34.3181H34.336Z" fill="#FFC670"/>
<path d="M34.3343 13.8398C29.0089 13.8398 24.2035 15.8122 20.707 19.0218C17.2284 22.2314 15.0588 26.6423 15.0588 31.5374H19.1112C19.1112 27.6823 20.8146 24.1858 23.558 21.6576C26.3013 19.1294 30.1026 17.5694 34.3163 17.5694H42.1341V101.646H45.6306V13.8398H34.3163H34.3343Z" fill="#FFECB2"/>
</g>
<defs>
<clipPath id="clip0_8049_2330">
<rect width="61" height="101.649" fill="white"/>
</clipPath>
</defs>
</svg>
