<svg width="50" height="50" viewBox="0 0 50 50" fill="none" xmlns="http://www.w3.org/2000/svg">
<path d="M24.7214 47.8775C37.4729 47.8775 47.8101 37.5264 47.8101 24.7576C47.8101 11.9888 37.4729 1.6377 24.7214 1.6377C11.9699 1.6377 1.63281 11.9888 1.63281 24.7576C1.63281 37.5264 11.9699 47.8775 24.7214 47.8775Z" fill="white"/>
<path d="M37.0812 37.132C43.9077 30.2963 43.9077 19.2134 37.0812 12.3777C30.2548 5.542 19.1869 5.542 12.3604 12.3777C5.53395 19.2134 5.53395 30.2963 12.3604 37.132C19.1869 43.9678 30.2548 43.9678 37.0812 37.132Z" fill="#F9EFEF"/>
<path d="M29.5426 25.5415C29.3611 25.0554 29.0572 24.6207 28.6388 24.2571C28.252 23.9211 27.7587 23.6287 27.1627 23.3916C26.6102 23.1702 25.9274 22.9726 25.1341 22.8027C24.6328 22.696 24.2184 22.5853 23.9027 22.4786C23.5672 22.364 23.3857 22.2533 23.2909 22.1822C23.2002 22.115 23.141 22.0478 23.1173 21.9925C23.0778 21.9056 23.062 21.787 23.062 21.6408V21.4708C23.062 21.3681 23.0857 21.2772 23.141 21.1823C23.2041 21.0677 23.2988 20.9689 23.4251 20.8741C23.5672 20.7713 23.7488 20.6844 23.9737 20.6211C24.2145 20.55 24.4987 20.5144 24.8223 20.5144C25.2683 20.5144 25.6629 20.55 25.9984 20.6251C26.326 20.6962 26.6457 20.8108 26.9654 20.9689C27.3364 21.1428 27.7192 21.1784 28.0784 21.0717C28.3349 20.9926 28.698 20.799 28.9625 20.3287C29.1874 19.9493 29.2427 19.5303 29.1243 19.1193C29.0059 18.7122 28.7414 18.3882 28.3744 18.1945C27.7113 17.823 26.922 17.5819 26.0182 17.4673V16.2264C26.0182 15.3529 25.3117 14.6455 24.4395 14.6455C23.5672 14.6455 22.8607 15.3529 22.8607 16.2264V17.6531C22.8292 17.661 22.7976 17.6689 22.77 17.6768C22.1503 17.8744 21.6136 18.155 21.1794 18.5146C20.7295 18.8861 20.3822 19.3327 20.1454 19.8465C19.9086 20.3563 19.7902 20.9096 19.7902 21.4906V21.6961C19.7902 22.3403 19.8928 22.9015 20.094 23.3718C20.3032 23.8619 20.6269 24.2808 21.0492 24.6246C21.4439 24.9408 21.9332 25.2056 22.5095 25.415C23.0344 25.6047 23.6619 25.7707 24.3605 25.913C24.8539 26.0197 25.2683 26.1304 25.5919 26.241C25.8682 26.3359 26.0813 26.4386 26.2313 26.5493C26.3339 26.6244 26.401 26.7034 26.4365 26.7825C26.4839 26.8931 26.5076 27.0394 26.5076 27.2133V27.403C26.5076 27.6757 26.401 27.8733 26.1563 28.0669C25.8721 28.2922 25.3709 28.4107 24.7118 28.4107C24.2105 28.4107 23.733 28.3436 23.2949 28.2131C22.845 28.0788 22.4305 27.897 22.0753 27.6796C21.5859 27.3634 21.1518 27.3911 20.8676 27.4702C20.5006 27.5729 20.1848 27.8179 19.9599 28.1697C19.7309 28.5214 19.6402 28.9166 19.6954 29.3118C19.7546 29.7545 20.0151 30.1378 20.4295 30.3829C20.9584 30.7307 21.5978 31.0112 22.3358 31.2168C22.5055 31.2642 22.6831 31.3077 22.8568 31.3432V32.6711C22.8568 33.5446 23.5633 34.252 24.4355 34.252C25.3077 34.252 26.0142 33.5446 26.0142 32.6711V31.4183C26.9654 31.2602 27.7626 30.9362 28.3744 30.4342C29.3177 29.6675 29.7952 28.6123 29.7952 27.2923V27.0512C29.7952 26.5019 29.7084 25.9921 29.5387 25.5415H29.5426Z" fill="#EF6250"/>
</svg>
