<svg width="45" height="47" viewBox="0 0 45 47" fill="none" xmlns="http://www.w3.org/2000/svg">
<path d="M37.8283 4.35352H6.78451C3.03753 4.35352 0 7.20197 0 10.7157V39.8271C0 43.3409 3.03753 46.1893 6.78451 46.1893H37.8283C41.5753 46.1893 44.6128 43.3409 44.6128 39.8271V10.7157C44.6128 7.20197 41.5753 4.35352 37.8283 4.35352Z" fill="white"/>
<path d="M23.9095 19.0843C23.5138 18.2594 22.6384 17.7266 21.6746 17.7266H13.3539C12.0029 17.7266 10.9044 18.7567 10.9044 20.0236C10.9044 21.2905 12.0029 22.3246 13.3539 22.3246H16.3127L15.0963 23.852C14.4776 24.5032 14.3009 25.407 14.6292 26.2082C14.9616 27.0133 15.7318 27.5738 16.6325 27.6645C16.8219 27.6882 18.5096 27.9408 18.9473 29.4998C19.1409 30.1826 19.0694 30.7351 18.7327 31.1416C18.3413 31.6192 17.6258 31.9034 16.8219 31.9034C15.635 31.9034 14.6586 31.2719 14.4861 31.0311C13.7327 29.9813 12.2049 29.7011 11.0812 30.4075C10.5382 30.7509 10.1679 31.2719 10.0458 31.8757C9.91956 32.4796 10.0542 33.0914 10.4162 33.6005C11.6409 35.3094 14.2756 36.5014 16.8219 36.5014C19.1367 36.5014 21.3042 35.5462 22.6174 33.9439C23.8926 32.3888 24.2714 30.3918 23.6864 28.3197C23.2487 26.7726 22.3143 25.4701 20.976 24.5308L23.5012 21.5549C24.1409 20.88 24.3009 19.9091 23.9052 19.0843H23.9095Z" fill="#C6E6DB"/>
<path d="M32.4328 17.7314C31.6247 17.3328 30.6525 17.388 29.9033 17.8735L26.7888 19.8863C25.6777 20.6047 25.3957 22.0413 26.1617 23.0832C26.772 23.9121 27.8579 24.2554 28.8427 23.9949V33.9132C28.8427 35.1801 29.9412 36.2142 31.2922 36.2142C32.6432 36.2142 33.7459 35.184 33.7459 33.9132V19.7719C33.7459 18.9154 33.2451 18.134 32.4328 17.7354V17.7314Z" fill="#C6E6DB"/>
<path d="M8.71973 6.38983V2.31281C8.71973 1.03406 9.82663 0 11.1861 0C12.5455 0 13.6524 1.038 13.6524 2.31281V6.38983C13.6524 7.66858 12.5455 8.70264 11.1861 8.70264C9.82663 8.70264 8.71973 7.66464 8.71973 6.38983Z" fill="#27C590"/>
<path d="M19.8433 6.38983V2.31281C19.8433 1.03406 20.9502 0 22.3096 0C23.669 0 24.7759 1.038 24.7759 2.31281V6.38983C24.7759 7.66858 23.669 8.70264 22.3096 8.70264C20.9502 8.70264 19.8433 7.66464 19.8433 6.38983Z" fill="#27C590"/>
<path d="M30.9666 6.38983V2.31281C30.9666 1.03406 32.0735 0 33.4329 0C34.7923 0 35.8992 1.038 35.8992 2.31281V6.38983C35.8992 7.66858 34.7923 8.70264 33.4329 8.70264C32.0735 8.70264 30.9666 7.66464 30.9666 6.38983Z" fill="#27C590"/>
</svg>
