<svg width="61" height="94" viewBox="0 0 61 94" fill="none" xmlns="http://www.w3.org/2000/svg">
<path fill-rule="evenodd" clip-rule="evenodd" d="M30.5161 51.8227H9.83292V48.381H30.5161C36.0923 48.381 41.1391 46.2299 44.7959 42.7386C48.4526 39.2472 50.703 34.4322 50.703 29.1042C50.703 23.7762 48.4361 18.9611 44.7959 15.4698C41.1391 11.9785 36.0923 9.82743 30.5161 9.82743C24.9399 9.82743 19.8932 11.9785 16.2365 15.4698C12.5797 18.9611 10.3293 23.7762 10.3293 29.1042H6.72217C6.72217 22.833 9.38617 17.1576 13.6883 13.0375C17.9904 8.93392 23.9472 6.38574 30.5161 6.38574C37.0851 6.38574 43.0419 8.93392 47.344 13.0375C51.6461 17.141 54.3101 22.833 54.3101 29.1042C54.3101 35.3754 51.6461 41.0508 47.344 45.1709C43.0419 49.2745 37.0851 51.8227 30.5161 51.8227Z" fill="#FFDA6F"/>
<path fill-rule="evenodd" clip-rule="evenodd" d="M30.5206 45.4344H9.8374V41.9927H30.5206C34.2436 41.9927 37.6191 40.5532 40.068 38.2201C42.5169 35.8871 44.0226 32.6605 44.0226 29.103C44.0226 25.5454 42.5169 22.3189 40.068 19.9858C37.6191 17.6527 34.2436 16.2132 30.5206 16.2132C26.7976 16.2132 23.4222 17.6527 20.9733 19.9858C18.5244 22.3189 17.0186 25.5454 17.0186 29.103H13.4115C13.4115 24.6023 15.3309 20.5153 18.4251 17.5534C21.5193 14.5916 25.7883 12.7715 30.5206 12.7715C35.253 12.7715 39.522 14.5916 42.6162 17.5534C45.7104 20.5153 47.6298 24.5857 47.6298 29.103C47.6298 33.6202 45.7104 37.6906 42.6162 40.6525C39.522 43.6143 35.253 45.4344 30.5206 45.4344Z" fill="#FFDA6F"/>
<path fill-rule="evenodd" clip-rule="evenodd" d="M30.5206 39.0472H9.8374V35.6055H30.5206C32.4069 35.6055 34.1112 34.8775 35.3357 33.7026C36.5601 32.5278 37.3213 30.9063 37.3213 29.1027C37.3213 27.2991 36.5601 25.6776 35.3357 24.5027C34.1112 23.3279 32.4069 22.5999 30.5206 22.5999C28.6343 22.5999 26.93 23.3279 25.7056 24.5027C24.4811 25.6776 23.7034 27.2991 23.7034 29.1027H20.0963C20.0963 26.356 21.2545 23.874 23.1409 22.0704C25.0272 20.2668 27.625 19.1582 30.5041 19.1582C33.3832 19.1582 35.981 20.2668 37.8673 22.0704C39.7536 23.874 40.9119 26.356 40.9119 29.1027C40.9119 31.8494 39.7536 34.3314 37.8673 36.135C35.981 37.9386 33.3832 39.0472 30.5041 39.0472H30.5206Z" fill="#FFDA6F"/>
<path d="M52.0814 8.52149C46.5714 3.25968 38.9434 0 30.5212 0C22.099 0 14.4876 3.25968 8.96103 8.52149C3.45102 13.7833 0.0258789 21.0638 0.0258789 29.1054H3.63303C3.63303 22.0235 6.64452 15.6034 11.5092 10.9538C16.3739 6.30425 23.0918 3.44169 30.5212 3.44169C37.9506 3.44169 44.6686 6.32079 49.5333 10.9538C54.398 15.6034 57.4094 22.007 57.4094 29.1054C57.4094 36.2039 54.398 42.6074 49.5333 47.257C44.6686 51.9066 37.9506 54.7692 30.5212 54.7692H9.838V58.2109H30.5212C30.5212 58.2109 30.6205 58.2109 30.6702 58.2109C30.7198 58.2109 30.7694 58.2109 30.8191 58.2109L30.9018 58.1778C30.9018 58.1778 41.5909 58.3598 50.6584 50.8476C52.0318 49.7225 53.3555 48.4153 54.613 46.9096C58.6173 41.9787 61 35.8068 61 29.0889C61 21.0472 57.5914 13.7833 52.0649 8.50494L52.0814 8.52149Z" fill="#FFDA6F"/>
<path d="M40.9057 56.4783C42.8416 58.7121 44.0164 61.5746 44.0164 64.7185C44.0164 68.276 42.5107 71.5026 40.0618 73.8356C37.6129 76.1687 34.2374 77.6083 30.5144 77.6083C26.7915 77.6083 23.416 76.1687 20.9671 73.8356C18.5182 71.5026 17.0124 68.276 17.0124 64.7185H13.4053C13.4053 69.2192 15.3247 73.3062 18.4189 76.268C21.5131 79.2298 25.7821 81.05 30.5144 81.05C35.2468 81.05 39.5158 79.2298 42.61 76.268C45.7042 73.3062 47.6236 69.2357 47.6236 64.7185C47.6236 61.1113 46.3992 57.7689 44.3143 55.0718H44.2812C44.2812 55.0718 44.2812 54.9891 44.2812 54.9395C43.0898 55.502 41.9316 55.9819 40.8064 56.3625C40.8395 56.3956 40.8726 56.4286 40.9057 56.4783Z" fill="#FFDA6F"/>
<path d="M37.5119 57.3515C37.5119 57.3515 37.4954 57.3349 37.4788 57.3184C33.6235 58.2284 30.8933 58.1953 30.8933 58.1953L30.8106 58.2284C32.5645 58.3112 34.153 58.9896 35.3278 60.0982C36.5522 61.273 37.3134 62.8946 37.3134 64.6981C37.3134 66.5017 36.5522 68.1233 35.3278 69.2981C34.1033 70.4729 32.399 71.2009 30.5127 71.2009C28.6264 71.2009 26.9221 70.4729 25.6977 69.2981C24.4732 68.1233 23.6955 66.5017 23.6955 64.6981H20.0884C20.0884 67.4449 21.2466 69.9269 23.1329 71.7304C25.0193 73.534 27.6171 74.6426 30.4962 74.6426C33.3753 74.6426 35.9731 73.534 37.8594 71.7304C39.7457 69.9269 40.904 67.4449 40.904 64.6981C40.904 61.9514 39.7457 59.4694 37.8594 57.6658C37.8263 57.6327 37.6939 57.5169 37.5781 57.4011H37.545C37.545 57.4011 37.5285 57.368 37.5119 57.3349V57.3515Z" fill="#FFDA6F"/>
<path d="M49.9308 51.565L49.8646 51.6147C49.8646 51.6147 49.9308 51.5154 49.9473 51.4492C48.938 52.2269 47.9121 52.9384 46.9028 53.5506C46.9524 53.5672 46.9855 53.5837 47.0351 53.6003C49.3682 56.7441 50.7416 60.5829 50.7416 64.7196C50.7416 70.0476 48.4747 74.8626 44.8344 78.354C41.1776 81.8453 36.1309 83.9963 30.5547 83.9963C24.9785 83.9963 19.9318 81.8453 16.275 78.354C12.6182 74.8626 10.3679 70.0476 10.3679 64.7196H6.76074C6.76074 70.9907 9.42474 76.6662 13.7269 80.7863C18.029 84.8899 23.9857 87.438 30.5547 87.438C37.1237 87.438 43.0805 84.8899 47.3826 80.7863C51.6847 76.6828 54.3487 70.9907 54.3487 64.7196C54.3487 59.8218 52.7271 55.2715 49.9639 51.565H49.9308Z" fill="#FFDA6F"/>
<path d="M56.0929 48.8812C55.6296 48.2027 55.1497 47.5409 54.6368 46.9121L54.6037 46.9617C54.6037 46.9617 54.6037 46.9617 54.6037 46.9452C53.3462 48.4509 52.0721 49.6423 52.1217 49.5927C52.2706 49.7912 52.4857 49.9732 52.6181 50.1718C55.613 54.3084 57.3835 59.322 57.3835 64.7328C57.3835 71.8147 54.372 78.2348 49.5074 82.8844C44.6427 87.534 37.9248 90.3965 30.4953 90.3965C23.0659 90.3965 16.348 87.5174 11.4833 82.8844C6.61862 78.2348 3.60716 71.8313 3.60716 64.7328H0C0 72.7744 3.40859 80.0384 8.93514 85.3167C14.4452 90.5785 22.0731 93.8382 30.4953 93.8382C38.9176 93.8382 46.529 90.5785 52.0555 85.3167C57.5656 80.0549 60.9907 72.7744 60.9907 64.7328C60.9907 58.8918 59.1871 53.4646 56.0763 48.8977L56.0929 48.8812Z" fill="#FFDA6F"/>
</svg>
