<svg width="115" height="115" viewBox="0 0 115 115" fill="none" xmlns="http://www.w3.org/2000/svg">
<g clip-path="url(#clip0_8049_2100)">
<path d="M57.5 115C89.2564 115 115 89.2564 115 57.5C115 25.7436 89.2564 0 57.5 0C25.7436 0 0 25.7436 0 57.5C0 89.2564 25.7436 115 57.5 115Z" fill="#E6F4F1"/>
<path d="M41.52 80.4806L31.82 82.2406L13.76 32.5106L30.27 25.8906L41.52 80.4806Z" fill="#68C2A0"/>
<path d="M38 80.0004L32.08 81.5804L14.16 31.9704L27.27 27.6104L38 80.0004Z" fill="#63AD91"/>
<path d="M63.9765 16.0042L29.649 22.6768L40.6702 79.3755L74.9977 72.703L63.9765 16.0042Z" fill="#68C2A0"/>
<path d="M60.7597 16.6232L29.6519 22.6699L40.4116 78.0239L71.5194 71.9771L60.7597 16.6232Z" fill="#63AD91"/>
<path d="M50 66.57C48.71 66.35 47.35 66.24 45.91 66.31C41.33 66.55 37.08 68.46 31.62 72.71C30.49 73.59 29.56 74.15 29 74.46L31.82 82.23L50 76.16V66.56V66.57Z" fill="#68C2A0"/>
<path d="M96 45H50V79H96V45Z" fill="#E8F0FC"/>
<path d="M93 48H51V88H93V48Z" fill="white"/>
<path d="M69.63 81.1203L70.12 81.2103C72.36 81.6303 74.52 80.1603 74.93 77.9203C75.33 75.7603 73.93 73.6703 71.78 73.2003C71.78 73.2003 65.76 72.5803 61.87 71.1503C58.79 70.0203 54.94 67.4203 50 66.5703V85.0003H90.91C92.71 84.1103 94.51 83.2803 96 82.5103V75.9403C86.09 74.0203 78.61 84.1003 69.63 81.1203Z" fill="#E8F0FC"/>
<path d="M70 54H58V67H70V54Z" fill="#0A7E79"/>
<path d="M67 54H58V67H67V54Z" fill="#00A69E"/>
<path d="M70 59H58V67H70V59Z" fill="#FFCBA4"/>
<path d="M67 59H58V67H67V59Z" fill="#FFDCB4"/>
<path d="M88 54H76V67H88V54Z" fill="#0A7E79"/>
<path d="M85 54H76V67H85V54Z" fill="#00A69E"/>
<path d="M88 59H76V67H88V59Z" fill="#FFCBA4"/>
<path d="M85 59H76V67H85V59Z" fill="#FFDCB4"/>
<path d="M98 40H48V45H98V40Z" fill="#F97594"/>
<path d="M95 40H48V45H95V40Z" fill="#FF859E"/>
<path d="M73.18 19.7607L50.25 40.0007H96.12L73.18 19.7607Z" fill="#F97594"/>
<path d="M58.96 36.9999H92.4L75.6 22.1699L58.96 36.9999Z" fill="#FF859E"/>
<path d="M28.44 77.7602C28.44 77.7602 29.77 77.1502 31.62 75.7102C37.08 71.4602 41.33 69.5402 45.91 69.3102C52.88 68.9502 57.99 72.7202 61.87 74.1502C65.75 75.5802 71.77 76.2002 71.77 76.2002C73.93 76.6802 75.32 78.7602 74.92 80.9202C74.51 83.1502 72.35 84.6302 70.11 84.2102L69.62 84.1202C78.96 87.2202 86.68 76.1902 97.19 79.2302C98.75 79.6802 100.14 80.9702 99.61 82.7302C99.09 84.4602 94.08 86.3302 89.59 88.6702C83.03 92.0902 75.07 97.2302 73.9 97.7602C71.91 98.6602 68.76 98.9302 59.73 97.3802C51.22 95.9202 47.54 95.1602 44.02 95.2202C42.15 95.2502 32.27 95.5302 30 96.4102L28.43 77.7802L28.44 77.7602Z" fill="#FFE5E1"/>
<path d="M73.93 82.4006C73.28 83.7806 71.53 84.5006 69.74 84.1206L53.87 80.7606C52.86 80.5406 52.23 79.6605 52.49 78.8405C52.72 78.1105 53.6 77.7106 54.5 77.9006L74 82.2606L73.94 82.3906L73.93 82.4006Z" fill="#FFD9D2"/>
<path d="M99.06 80.9004C97.93 82.5004 92.99 84.1804 88.51 86.2804C81.5 89.5604 72.96 94.5204 71.7 95.0204C69.57 95.8804 66.14 95.4404 56.63 93.7504C47.66 92.1504 45.57 92.4204 42.17 92.2504C37.74 92.0304 30.71 92.4604 29 93.1204V96.4004C30.48 95.6604 36.85 95.3004 38.84 95.3104C42.56 95.3104 48.97 95.6604 57.94 97.2604C67.45 98.9604 70.81 99.2904 72.94 98.4304C74.19 97.9304 82.41 92.2504 89.42 88.9704C94.22 86.7304 100.12 83.4804 100.12 83.4804C100.12 83.4804 100.18 81.5504 99.06 80.9104V80.9004Z" fill="#FFD9D2"/>
<path d="M32 95.0001H29V77.5101L32 75.3301V95.0001Z" fill="#FFD9D2"/>
<path d="M29 76H24V99H29V76Z" fill="#E8F0FC"/>
<path d="M14 101H24L24 74H14L14 101Z" fill="#0A7E79"/>
<path d="M14 98H24L24 74H14L14 98Z" fill="#00A69E"/>
<path d="M29 76H24V96H29V76Z" fill="white"/>
<path d="M38.35 70.9201L28.47 21.8801L64.77 14.8301L66.96 25.9901L65 26.3801L63.19 17.1701L30.83 23.4601L40.31 70.5301L38.35 70.9201Z" fill="#556193"/>
<path d="M29.33 76.9799L12.62 31.4799L29.91 25.3799L30.58 27.2699L15.19 32.6899L31.21 76.2899L29.33 76.9799Z" fill="#556193"/>
<path d="M36.74 35.7704L35.71 30.5004L36.69 30.3104C37.57 30.1404 38.34 29.6304 38.84 28.8904C39.34 28.1404 39.53 27.2504 39.35 26.3604L39.16 25.3804L44.43 24.3604L44.81 26.3204L41.41 26.9804C41.42 29.1804 40.07 31.1804 38.03 32.0004L38.69 35.4004L36.73 35.7803L36.74 35.7704Z" fill="#556193"/>
<path d="M22.27 43.7496L20.52 38.6696L21.47 38.3396C22.32 38.0496 23.01 37.4396 23.4 36.6296C23.79 35.8196 23.85 34.9096 23.56 34.0496L23.23 33.0996L28.31 31.3496L28.96 33.2396L25.69 34.3696C25.85 35.4296 25.69 36.5096 25.2 37.4996C24.72 38.4796 23.97 39.2796 23.04 39.8096L24.17 43.0796L22.28 43.7296L22.27 43.7496Z" fill="#556193"/>
<path d="M59.94 29.1103L59.68 27.7803C58.58 27.7603 57.56 27.4703 56.65 26.8603C55.74 26.2503 55.06 25.3903 54.66 24.4003L51.26 25.0603L50.88 23.1003L56.15 22.0703L56.34 23.0503C56.51 23.9303 57.02 24.7003 57.76 25.2003C58.51 25.7003 59.4 25.8903 60.29 25.7103L61.27 25.5203L61.89 28.7303L59.93 29.1103H59.94Z" fill="#556193"/>
<path d="M97 45H95V79H97V45Z" fill="#556193"/>
<path d="M51 45H49V69H51V45Z" fill="#556193"/>
<path d="M99 46H47V39H99V46ZM49 44H97V41H49V44Z" fill="#556193"/>
<path d="M50.66 40.6998L49.34 39.1898L73.73 18.0098L96.99 39.1498L95.65 40.6298L73.7 20.6798L50.66 40.6998Z" fill="#556193"/>
<path d="M71 68H57V53H71V68ZM59 66H69V55H59V66Z" fill="#556193"/>
<path d="M70 58H58V60H70V58Z" fill="#556193"/>
<path d="M89 68H75V53H89V68ZM77 66H87V55H77V66Z" fill="#556193"/>
<path d="M88 58H76V60H88V58Z" fill="#556193"/>
<path d="M70.63 99.3899C67.47 99.3899 62.15 98.7299 52.82 97.3899C46.7 96.5099 41.39 96.1499 36.6 96.3099C34.32 96.3799 30.74 96.8199 29.25 97.3499L28.59 95.4599C30.27 94.8699 34.06 94.3899 36.54 94.3099C41.45 94.1599 46.87 94.5199 53.1 95.4099C63.63 96.9099 71.23 97.9099 73.12 97.0799C73.51 96.9099 75 96.0199 76.73 94.9899C79.99 93.0499 84.91 90.1199 89.21 87.9099C90.44 87.2799 91.7 86.6899 92.91 86.1199C95.37 84.9599 98.74 83.3799 99.01 82.4899C99.14 82.0699 99.11 81.6999 98.92 81.3399C98.64 80.8099 98.01 80.3599 97.23 80.1199C92.14 78.5899 87.56 80.6099 83.14 82.5699C78.65 84.5599 74 86.6099 68.94 84.8699L69.59 82.9799C73.91 84.4699 78 82.6599 82.33 80.7499C87.09 78.6499 92 76.4699 97.81 78.2099C99.1 78.5999 100.15 79.3999 100.69 80.3999C101.13 81.2199 101.21 82.1499 100.92 83.0799C100.41 84.7299 97.99 85.9299 93.76 87.9199C92.56 88.4799 91.32 89.0699 90.12 89.6799C85.87 91.8599 80.99 94.7699 77.75 96.6899C75.56 97.9899 74.4 98.6799 73.93 98.8899C73.21 99.2099 72.18 99.3699 70.63 99.3699V99.3899Z" fill="#556193"/>
<path d="M70.61 85.1103C70.27 85.1103 69.92 85.0803 69.58 85.0103L52.32 81.5703L52.71 79.6103L69.97 83.0503C70.81 83.2203 71.67 83.0502 72.39 82.5602C73.1 82.0802 73.59 81.3503 73.75 80.5003C74.07 78.8203 73.03 77.2003 71.38 76.7903C70.68 76.7103 64.95 76.0003 61.08 74.5303C60.08 74.1503 59.1 73.6803 58.06 73.1803C54.94 71.6903 51.39 70.0103 46.23 70.2203C40.34 70.4703 36.79 73.2103 34.67 74.8503C34.34 75.1103 34.04 75.3402 33.78 75.5202C33.14 75.9702 30.88 77.5403 28.62 78.6503L27.74 76.8503C29.43 76.0203 31.37 74.7803 32.62 73.8903C32.86 73.7203 33.14 73.5102 33.45 73.2702C35.61 71.6002 39.62 68.5003 46.15 68.2303C51.79 68.0003 55.75 69.8702 58.92 71.3802C59.92 71.8602 60.87 72.3103 61.79 72.6603C65.58 74.1103 71.6 74.8002 71.66 74.8102L71.77 74.8303C74.51 75.4603 76.24 78.1202 75.71 80.8802C75.45 82.2502 74.66 83.4403 73.5 84.2203C72.63 84.8103 71.63 85.1103 70.6 85.1103H70.61Z" fill="#556193"/>
<path d="M30 100H24V98H28V77H24V75H30V100Z" fill="#556193"/>
<path d="M25 102H13V73H25V102ZM15 100H23V75H15V100Z" fill="#556193"/>
</g>
<defs>
<clipPath id="clip0_8049_2100">
<rect width="115" height="115" fill="white"/>
</clipPath>
</defs>
</svg>
