<svg width="115" height="115" viewBox="0 0 115 115" fill="none" xmlns="http://www.w3.org/2000/svg">
<g clip-path="url(#clip0_8049_2060)">
<path d="M57.5 115C89.2564 115 115 89.2564 115 57.5C115 25.7436 89.2564 0 57.5 0C25.7436 0 0 25.7436 0 57.5C0 89.2564 25.7436 115 57.5 115Z" fill="#E6F4F1"/>
<path d="M91 18H25V28H91V18Z" fill="#D4E6FF"/>
<path d="M88 18V24H25V27H92V18H88Z" fill="#C5D9F9"/>
<path d="M99 34H18C16.34 34 15 35.34 15 37V40H102V37C102 35.34 100.66 34 99 34Z" fill="#63AD91"/>
<path d="M95 34H22V40H95V34Z" fill="#057D77"/>
<path d="M102 40H15V93H102V40Z" fill="#D4E6FF"/>
<path d="M95 40H22V93H95V40Z" fill="#C5D9F9"/>
<path d="M92 28H26V94H92V28Z" fill="#E8F0FC"/>
<path d="M89 28H25V91H89V28Z" fill="white"/>
<path d="M8 94V98.09C8 99.7 9.3 101 10.91 101H105.09C106.7 101 108 99.7 108 98.09V94H8Z" fill="#63AD91"/>
<path d="M49 94V96.52C49 97.34 49.66 98 50.48 98H65.52C66.34 98 67 97.34 67 96.52V94H49Z" fill="white"/>
<path d="M85 24C85.5523 24 86 23.5523 86 23C86 22.4477 85.5523 22 85 22C84.4477 22 84 22.4477 84 23C84 23.5523 84.4477 24 85 24Z" fill="#556193"/>
<path d="M41 73H35V80H41V73Z" fill="#FFDCB4"/>
<path d="M54 68H48V80H54V68Z" fill="#FFE5E1"/>
<path d="M67 62H61V80H67V62Z" fill="#FF859E"/>
<path d="M80 44H74V80H80V44Z" fill="#63AD91"/>
<path d="M43.21 52.5003L44.36 51.1103C45.08 51.7803 46.03 52.2203 46.91 52.2203C47.96 52.2203 48.51 51.7703 48.51 51.0703C48.51 50.3203 47.9 50.0903 47 49.7103L45.66 49.1403C44.64 48.7203 43.62 47.9003 43.62 46.4403C43.62 44.8003 45.06 43.5303 47.1 43.5303C48.27 43.5303 49.44 43.9903 50.25 44.8203L49.23 46.0803C48.59 45.5503 47.93 45.2503 47.1 45.2503C46.22 45.2503 45.66 45.6403 45.66 46.3103C45.66 47.0303 46.37 47.2903 47.22 47.6303L48.54 48.1903C49.76 48.6903 50.56 49.4703 50.56 50.9203C50.56 52.5603 49.19 53.9603 46.87 53.9603C45.53 53.9603 44.18 53.4303 43.2 52.4903L43.21 52.5003Z" fill="#C5D9F9"/>
<path d="M105.09 102H10.91C8.75 102 7 100.25 7 98.09V93H109V98.09C109 100.25 107.25 102 105.09 102ZM9 95V98.09C9 99.14 9.86 100 10.91 100H105.09C106.14 100 107 99.14 107 98.09V95H9Z" fill="#556193"/>
<path d="M16 94H14V36.91C14 34.75 15.75 33 17.91 33H25V35H17.91C16.86 35 16 35.86 16 36.91V94Z" fill="#556193"/>
<path d="M103 94H101V36.91C101 35.86 100.14 35 99.09 35H92V33H99.09C101.25 33 103 34.75 103 36.91V94Z" fill="#556193"/>
<path d="M65.52 99H50.48C49.11 99 48 97.89 48 96.52V94H50V96.52C50 96.78 50.21 97 50.48 97H65.52C65.78 97 66 96.79 66 96.52V94H68V96.52C68 97.89 66.89 99 65.52 99Z" fill="#556193"/>
<path d="M102 39H92V41H102V39Z" fill="#556193"/>
<path d="M25 39H15V41H25V39Z" fill="#556193"/>
<path d="M93 94H91V19H26V94H24V17H93V94Z" fill="#556193"/>
<path d="M92 27H25V29H92V27Z" fill="#556193"/>
<path d="M46 24H42.8V22H46V24ZM39.6 24H36.4V22H39.6V24ZM33.2 24H30V22H33.2V24Z" fill="#556193"/>
<path d="M81 84H34V86H81V84Z" fill="#556193"/>
<path d="M55 81H47V67H55V81ZM49 79H53V69H49V79Z" fill="#556193"/>
<path d="M42 81H34V72H42V81ZM36 79H40V74H36V79Z" fill="#556193"/>
<path d="M68 81H60V61H68V81ZM62 79H66V63H62V79Z" fill="#556193"/>
<path d="M81 81H73V43H81V81ZM75 79H79V45H75V79Z" fill="#556193"/>
<path d="M48 41H46V44H48V41Z" fill="#C7DBF9"/>
<path d="M48 53H46V56H48V53Z" fill="#C7DBF9"/>
<path d="M47 61C39.83 61 34 55.17 34 48C34 40.83 39.83 35 47 35C54.17 35 60 40.83 60 48C60 55.17 54.17 61 47 61ZM47 37C40.93 37 36 41.93 36 48C36 54.07 40.93 59 47 59C53.07 59 58 54.07 58 48C58 41.93 53.07 37 47 37Z" fill="#C7DBF9"/>
</g>
<defs>
<clipPath id="clip0_8049_2060">
<rect width="115" height="115" fill="white"/>
</clipPath>
</defs>
</svg>
