<svg width="121" height="115" viewBox="0 0 121 115" fill="none" xmlns="http://www.w3.org/2000/svg">
<g clip-path="url(#clip0_8049_2152)">
<path d="M57.5 115C89.2564 115 115 89.2564 115 57.5C115 25.7436 89.2564 0 57.5 0C25.7436 0 0 25.7436 0 57.5C0 89.2564 25.7436 115 57.5 115Z" fill="#E6F4F1"/>
<path d="M28.4 12H76.46C77.86 12 79 13.14 79 14.54V20H24V16.4C24 13.97 25.97 12 28.4 12Z" fill="#00A69E"/>
<path d="M24 100H84V104.66C84 106.5 82.5 108 80.66 108H27.34C25.5 108 24 106.5 24 104.66V100Z" fill="#0D8D87"/>
<path d="M24 100H80V105.46C80 106.86 78.86 108 77.46 108H28.4C25.97 108 24 106.03 24 103.6V100Z" fill="#00A69E"/>
<path d="M67 12H64V20H67V12Z" fill="#0D8D87"/>
<path d="M84 21H24V100H84V21Z" fill="#E8F0FC"/>
<path d="M80 20H24V100H80V20Z" fill="white"/>
<path d="M84.28 20H64V65H72V76.71L84 65L84.28 20Z" fill="#E8F0FC"/>
<path d="M120 6H67V61H74V69.8L82.76 61H120V6Z" fill="#6DCFAA"/>
<path d="M117 6H67V58H74V65.8L81.76 58H117V6Z" fill="#63AD91"/>
<path d="M61 48H43V43L32 51L43 59V54H61V48Z" fill="#FF859E"/>
<path d="M39 68H57V63L68 71L57 79V74H39V68Z" fill="#FF859E"/>
<path d="M94 48C101.732 48 108 41.732 108 34C108 26.268 101.732 20 94 20C86.268 20 80 26.268 80 34C80 41.732 86.268 48 94 48Z" fill="#FFCBA4"/>
<path d="M95 47C101.627 47 107 41.6274 107 35C107 28.3726 101.627 23 95 23C88.3726 23 83 28.3726 83 35C83 41.6274 88.3726 47 95 47Z" fill="#FFDCB4"/>
<path d="M89.58 38.5901L90.93 36.9701C91.77 37.7501 92.88 38.2701 93.91 38.2701C95.13 38.2701 95.78 37.7501 95.78 36.9201C95.78 36.0501 95.07 35.7801 94.02 35.3401L92.45 34.6701C91.26 34.1801 90.07 33.2301 90.07 31.5101C90.07 29.5901 91.75 28.1201 94.13 28.1201C95.49 28.1201 96.86 28.6601 97.81 29.6301L96.62 31.1001C95.87 30.4801 95.1 30.1301 94.13 30.1301C93.1 30.1301 92.45 30.5901 92.45 31.3701C92.45 32.2101 93.27 32.5101 94.27 32.9101L95.81 33.5601C97.24 34.1501 98.17 35.0501 98.17 36.7501C98.17 38.6701 96.57 40.3001 93.86 40.3001C92.29 40.3001 90.72 39.6801 89.58 38.5901Z" fill="#556193"/>
<path d="M95 25H93V29H95V25Z" fill="#556193"/>
<path d="M95 39H93V43H95V39Z" fill="#556193"/>
<path d="M94 49C85.73 49 79 42.27 79 34C79 25.73 85.73 19 94 19C102.27 19 109 25.73 109 34C109 42.27 102.27 49 94 49ZM94 21C86.83 21 81 26.83 81 34C81 41.17 86.83 47 94 47C101.17 47 107 41.17 107 34C107 26.83 101.17 21 94 21Z" fill="#556193"/>
<path d="M44 60.96L30.3 51L44 41.04V47H62V55H44V60.96ZM33.7001 51L42 57.04V53H60V49H42V44.96L33.7001 51Z" fill="#556193"/>
<path d="M56 80.96V75H38V67H56V61.04L69.7 71L56 80.96ZM40 73H58V77.04L66.3 71L58 64.96V69H40V73Z" fill="#556193"/>
<path d="M67 19H24V21H67V19Z" fill="#556193"/>
<path d="M84 99H24V101H84V99Z" fill="#556193"/>
<path d="M79.98 109H28.02C25.25 109 23 106.75 23 103.98V16.02C23 13.25 25.25 11 28.02 11H67V13H28.02C26.36 13 25 14.35 25 16.02V103.99C25 105.65 26.35 107.01 28.02 107.01H79.99C81.65 107.01 83.01 105.66 83.01 103.99V61.01H85.01V103.99C85.01 106.76 82.76 109.01 79.99 109.01L79.98 109Z" fill="#556193"/>
<path d="M73 72.22V62H66V5H121V62H83.18L73 72.22ZM68 60H75V67.38L82.35 60H119V7H68V60Z" fill="#556193"/>
</g>
<defs>
<clipPath id="clip0_8049_2152">
<rect width="121" height="115" fill="white"/>
</clipPath>
</defs>
</svg>
