<svg width="39" height="40" viewBox="0 0 39 40" fill="none" xmlns="http://www.w3.org/2000/svg">
<g clip-path="url(#clip0_8049_3296)">
<path d="M30.5435 0.868164H0.854736V34.0222H30.5435V0.868164Z" fill="white"/>
<path d="M30.5435 34.8896H0.854763C0.383694 34.8896 0 34.5 0 34.0218V0.867804C0 0.389548 0.383694 0 0.854763 0H30.5435C31.0146 0 31.3983 0.389548 31.3983 0.867804V34.0218C31.3983 34.5 31.0146 34.8896 30.5435 34.8896ZM1.70953 33.154H29.6888V1.73561H1.70953V33.154Z" fill="#595757"/>
<path d="M26.418 16.4883C26.418 9.95472 21.202 4.65918 14.7666 4.65918C8.33119 4.65918 3.11523 9.95472 3.11523 16.4883C3.11523 23.0219 8.33119 28.3175 14.7666 28.3175C21.202 28.3175 26.418 23.0219 26.418 16.4883Z" fill="#EFEFEF"/>
<path d="M8.83641 9.96213C8.61607 9.96213 8.39953 9.87728 8.23238 9.70758L6.38989 7.83698C6.05558 7.49757 6.05558 6.94989 6.38989 6.61048C6.7242 6.27107 7.26365 6.27107 7.59796 6.61048L8.83261 7.86398L11.3855 5.27213C11.7198 4.93273 12.2593 4.93273 12.5936 5.27213C12.9279 5.61154 12.9279 6.15922 12.5936 6.49863L9.43665 9.70372C9.26949 9.87343 9.05295 9.95828 8.83261 9.95828L8.83641 9.96213Z" fill="#595757"/>
<path d="M25.0086 8.36159H15.5379C15.0668 8.36159 14.6831 7.97204 14.6831 7.49378C14.6831 7.01552 15.0668 6.62598 15.5379 6.62598H25.0086C25.4797 6.62598 25.8634 7.01552 25.8634 7.49378C25.8634 7.97204 25.4797 8.36159 25.0086 8.36159Z" fill="#595757"/>
<path d="M8.83641 19.0989C8.61607 19.0989 8.39953 19.014 8.23238 18.8443L6.38989 16.9737C6.05558 16.6343 6.05558 16.0866 6.38989 15.7472C6.7242 15.4078 7.26365 15.4078 7.59796 15.7472L8.83261 17.0007L11.3855 14.4089C11.7198 14.0694 12.2593 14.0694 12.5936 14.4089C12.9279 14.7483 12.9279 15.2959 12.5936 15.6353L9.43665 18.8404C9.26949 19.0101 9.05295 19.095 8.83261 19.095L8.83641 19.0989Z" fill="#595757"/>
<path d="M8.83641 28.2366C8.60848 28.2366 8.39194 28.144 8.23238 27.982L6.38989 26.1114C6.05558 25.772 6.05558 25.2244 6.38989 24.8849C6.7242 24.5455 7.26365 24.5455 7.59796 24.8849L8.83261 26.1423L11.3855 23.5505C11.7198 23.211 12.2593 23.211 12.5936 23.5505C12.9279 23.8899 12.9279 24.4375 12.5936 24.777L9.43665 27.982C9.27709 28.144 9.06055 28.2366 8.83261 28.2366H8.83641Z" fill="#595757"/>
<path d="M14.3296 18.6562V39.1325H34.8667C36.6788 39.1325 38.1452 37.6438 38.1452 35.804V18.6523H14.3296V18.6562Z" fill="white"/>
<path d="M34.8667 40H14.3296C13.8585 40 13.4749 39.6105 13.4749 39.1322V18.6559C13.4749 18.1776 13.8585 17.7881 14.3296 17.7881H38.1452C38.6163 17.7881 39 18.1776 39 18.6559V35.8076C39 38.1217 37.1461 40.0039 34.8667 40.0039V40ZM15.1844 38.2644H34.8667C36.204 38.2644 37.2905 37.1613 37.2905 35.8037V19.5198H15.1844V38.2606V38.2644Z" fill="#595757"/>
<path d="M38.1452 23.6741V18.6562H14.3296V23.6741" fill="#00A69E"/>
<path d="M38.1452 24.5415C37.6742 24.5415 37.2905 24.152 37.2905 23.6737V19.5237H15.1844V23.6737C15.1844 24.152 14.8007 24.5415 14.3296 24.5415C13.8585 24.5415 13.4749 24.152 13.4749 23.6737V18.6559C13.4749 18.1776 13.8585 17.7881 14.3296 17.7881H38.1452C38.6163 17.7881 39 18.1776 39 18.6559V23.6737C39 24.152 38.6163 24.5415 38.1452 24.5415Z" fill="#595757"/>
<path d="M18.0755 19.1728C17.6044 19.1728 17.2207 18.7833 17.2207 18.305V16.6813C17.2207 16.203 17.6044 15.8135 18.0755 15.8135C18.5465 15.8135 18.9302 16.203 18.9302 16.6813V18.305C18.9302 18.7833 18.5465 19.1728 18.0755 19.1728Z" fill="#595757"/>
<path d="M26.2356 19.1728C25.7646 19.1728 25.3809 18.7833 25.3809 18.305V16.6813C25.3809 16.203 25.7646 15.8135 26.2356 15.8135C26.7067 15.8135 27.0904 16.203 27.0904 16.6813V18.305C27.0904 18.7833 26.7067 19.1728 26.2356 19.1728Z" fill="#595757"/>
<path d="M34.3994 19.1728C33.9284 19.1728 33.5447 18.7833 33.5447 18.305V16.6813C33.5447 16.203 33.9284 15.8135 34.3994 15.8135C34.8705 15.8135 35.2542 16.203 35.2542 16.6813V18.305C35.2542 18.7833 34.8705 19.1728 34.3994 19.1728Z" fill="#595757"/>
<path d="M25.0616 34.3963C24.8413 34.3963 24.6247 34.3115 24.4576 34.1418L21.3652 31.0023C21.0309 30.6629 21.0309 30.1152 21.3652 29.7758C21.6995 29.4364 22.239 29.4364 22.5733 29.7758L25.0616 32.302L29.9015 27.3883C30.2358 27.0489 30.7752 27.0489 31.1095 27.3883C31.4438 27.7278 31.4438 28.2754 31.1095 28.6148L25.6656 34.1418C25.4985 34.3115 25.2819 34.3963 25.0616 34.3963Z" fill="#595757"/>
</g>
<defs>
<clipPath id="clip0_8049_3296">
<rect width="39" height="40" fill="white"/>
</clipPath>
</defs>
</svg>
