<svg width="34" height="34" viewBox="0 0 34 34" fill="none" xmlns="http://www.w3.org/2000/svg">
<g clip-path="url(#clip0_8049_3339)">
<path d="M33.2656 2.06738H28.0137V5.99842H33.2656V2.06738Z" fill="#00A69E"/>
<path d="M33.2623 6.74942H28.0103C27.6038 6.74942 27.2727 6.41209 27.2727 5.99794V2.0669C27.2727 1.65276 27.6038 1.31543 28.0103 1.31543H33.2623C33.6688 1.31543 33.9999 1.65276 33.9999 2.0669V5.99794C33.9999 6.41209 33.6688 6.74942 33.2623 6.74942ZM28.7512 5.24647H32.5279V2.81838H28.7512V5.24647Z" fill="#595757"/>
<path d="M33.2656 9.60254H28.0137V13.5336H33.2656V9.60254Z" fill="#00A69E"/>
<path d="M33.2623 14.2846H28.0103C27.6038 14.2846 27.2727 13.9472 27.2727 13.5331V9.60206C27.2727 9.18791 27.6038 8.85059 28.0103 8.85059H33.2623C33.6688 8.85059 33.9999 9.18791 33.9999 9.60206V13.5331C33.9999 13.9472 33.6688 14.2846 33.2623 14.2846ZM28.7512 12.7816H32.5279V10.3535H28.7512V12.7816Z" fill="#595757"/>
<path d="M33.2656 17.1338H28.0137V21.0648H33.2656V17.1338Z" fill="#00A69E"/>
<path d="M33.2623 21.8158H28.0103C27.6038 21.8158 27.2727 21.4785 27.2727 21.0644V17.1333C27.2727 16.7192 27.6038 16.3818 28.0103 16.3818H33.2623C33.6688 16.3818 33.9999 16.7192 33.9999 17.1333V21.0644C33.9999 21.4785 33.6688 21.8158 33.2623 21.8158ZM28.7512 20.3129H32.5279V17.8848H28.7512V20.3129Z" fill="#595757"/>
<path d="M29.5348 0.751953H2.90454V33.249H29.5348V0.751953Z" fill="white"/>
<path d="M29.5348 34H2.90463C2.49811 34 2.16699 33.6627 2.16699 33.2485V0.751473C2.16699 0.337328 2.49811 0 2.90463 0H29.5348C29.9414 0 30.2725 0.337328 30.2725 0.751473V33.2485C30.2725 33.6627 29.9414 34 29.5348 34ZM3.64226 32.4971H28.7972V1.50295H3.64226V32.4971Z" fill="#595757"/>
<path d="M25.2238 13.704C25.2238 8.63735 21.1914 4.5293 16.2181 4.5293C11.2448 4.5293 7.2124 8.63735 7.2124 13.704C7.2124 18.7706 11.2448 22.8786 16.2181 22.8786C21.1914 22.8786 25.2238 18.7706 25.2238 13.704Z" fill="#EFEFEF"/>
<path d="M19.3044 9.8961C19.3544 8.15927 18.0129 6.70999 16.308 6.65905C14.6032 6.60811 13.1806 7.9748 13.1306 9.71163C13.0806 11.4485 14.4221 12.8977 16.1269 12.9487C17.8318 12.9996 19.2544 11.6329 19.3044 9.8961Z" fill="#00A69E"/>
<path d="M20.3456 14.085H12.0972C10.1597 14.085 8.58936 15.6848 8.58936 17.6586V23.3632H23.8567V17.6586C23.8567 15.6848 22.2864 14.085 20.3489 14.085H20.3456Z" fill="#00A69E"/>
<path d="M23.0208 28.6065H9.41879C9.01227 28.6065 8.68115 28.2691 8.68115 27.855C8.68115 27.4408 9.01227 27.1035 9.41879 27.1035H23.0208C23.4273 27.1035 23.7584 27.4408 23.7584 27.855C23.7584 28.2691 23.4273 28.6065 23.0208 28.6065Z" fill="#595757"/>
<path d="M2.82596 5.63088H0.737634C0.331116 5.63088 0 5.29355 0 4.8794C0 4.46526 0.331116 4.12793 0.737634 4.12793H2.82596C3.23248 4.12793 3.56359 4.46526 3.56359 4.8794C3.56359 5.29355 3.23248 5.63088 2.82596 5.63088Z" fill="#595757"/>
<path d="M2.82596 11.0352H0.737634C0.331116 11.0352 0 10.6978 0 10.2837C0 9.86955 0.331116 9.53223 0.737634 9.53223H2.82596C3.23248 9.53223 3.56359 9.86955 3.56359 10.2837C3.56359 10.6978 3.23248 11.0352 2.82596 11.0352Z" fill="#595757"/>
<path d="M2.82596 24.4649H0.737634C0.331116 24.4649 0 24.1275 0 23.7134C0 23.2992 0.331116 22.9619 0.737634 22.9619H2.82596C3.23248 22.9619 3.56359 23.2992 3.56359 23.7134C3.56359 24.1275 3.23248 24.4649 2.82596 24.4649Z" fill="#595757"/>
<path d="M2.82596 29.8692H0.737634C0.331116 29.8692 0 29.5318 0 29.1177C0 28.7035 0.331116 28.3662 0.737634 28.3662H2.82596C3.23248 28.3662 3.56359 28.7035 3.56359 29.1177C3.56359 29.5318 3.23248 29.8692 2.82596 29.8692Z" fill="#595757"/>
</g>
<defs>
<clipPath id="clip0_8049_3339">
<rect width="34" height="34" fill="white"/>
</clipPath>
</defs>
</svg>
