<svg width="43" height="42" viewBox="0 0 43 42" fill="none" xmlns="http://www.w3.org/2000/svg">
<g clip-path="url(#clip0_8049_3369)">
<path d="M21.502 41.9997C32.6079 41.9997 41.611 32.8043 41.611 21.4613C41.611 10.1182 32.6079 0.922852 21.502 0.922852C10.3962 0.922852 1.39307 10.1182 1.39307 21.4613C1.39307 32.8043 10.3962 41.9997 21.502 41.9997Z" fill="#EFEFEF"/>
<path d="M3.62793 26.542L16.7216 39.9152C17.5466 40.7579 18.8859 40.7579 19.7151 39.9152C20.5402 39.0725 20.5402 37.7047 19.7151 36.8578L16.8459 33.9273L16.9703 33.8003L20.5858 37.493C21.4109 38.3357 22.7501 38.3357 23.5793 37.493C24.4044 36.6502 24.4044 35.2824 23.5793 34.4355L19.9639 30.7428L20.0882 30.6158L24.4542 35.0749C25.2793 35.9176 26.6185 35.9176 27.4477 35.0749C28.2728 34.2322 28.2728 32.8602 27.4477 32.0175L23.0818 27.5583L23.2062 27.4313L28.3184 32.6527C29.1435 33.4954 30.4827 33.4954 31.3119 32.6527C32.137 31.81 32.137 30.4379 31.3119 29.5952L19.9639 18.0048C19.9639 18.0048 16.253 14.1893 10.0338 15.0023L3.62378 26.542H3.62793Z" fill="white"/>
<path d="M18.2182 41.5036C17.4056 41.5036 16.6385 41.1775 16.0622 40.5889L2.96857 27.2156C2.67005 26.9107 2.60785 26.4449 2.81516 26.0723L9.22515 14.5326C9.37027 14.2701 9.62733 14.0965 9.91756 14.0584C10.5312 13.9779 11.149 13.9355 11.7585 13.9355C17.2563 13.9355 20.4945 17.1963 20.6271 17.336L31.9752 28.9265C33.1652 30.1418 33.1652 32.1152 31.9752 33.3306C31.3989 33.9192 30.6319 34.2453 29.8192 34.2453C29.5207 34.2453 29.2305 34.2029 28.9527 34.1182C28.8407 34.7323 28.5546 35.2997 28.111 35.7528C27.5347 36.3415 26.7676 36.6633 25.955 36.6633C25.6565 36.6633 25.3662 36.621 25.0884 36.5363C24.9765 37.1503 24.6862 37.7178 24.2426 38.1709C23.6663 38.7595 22.9034 39.0813 22.0866 39.0813C21.7881 39.0813 21.4978 39.039 21.22 38.9543C21.1122 39.5556 20.8303 40.1273 20.3784 40.5889C19.802 41.1775 19.035 41.5036 18.2224 41.5036H18.2182ZM4.78874 26.3814L17.3807 39.2423C17.8285 39.6996 18.608 39.6996 19.0557 39.2423C19.516 38.7722 19.516 38.0057 19.0557 37.5314L16.1866 34.601C16.0124 34.4231 15.9129 34.1818 15.9129 33.9277C15.9129 33.6736 16.0124 33.4322 16.1866 33.2544L16.311 33.1273C16.6758 32.7547 17.2646 32.7547 17.6295 33.1273L21.2449 36.82C21.6927 37.2773 22.4722 37.2773 22.9158 36.82C23.1397 36.5913 23.2641 36.2864 23.2641 35.9646C23.2641 35.6427 23.1397 35.3378 22.9158 35.1092L19.3004 31.4165C18.9355 31.0438 18.9355 30.4425 19.3004 30.0698L19.4247 29.9428C19.773 29.5871 20.395 29.5871 20.7432 29.9428L25.1092 34.402C25.5569 34.8593 26.3364 34.8593 26.7842 34.402C27.0081 34.1733 27.1325 33.8726 27.1325 33.5466C27.1325 33.2205 27.0081 32.9198 26.7842 32.6911L22.4183 28.232C22.2441 28.0541 22.1446 27.8127 22.1446 27.5587C22.1446 27.3046 22.2441 27.0632 22.4183 26.8853L22.5427 26.7583C22.9075 26.3856 23.4963 26.3856 23.8612 26.7583L28.9734 31.9797C29.4212 32.4371 30.2007 32.4371 30.6484 31.9797C31.1087 31.5097 31.1087 30.7432 30.6484 30.2689L19.3004 18.6784C19.2713 18.6488 16.4478 15.8412 11.7543 15.8412C11.377 15.8412 10.9956 15.8581 10.61 15.8962L4.78874 26.3814Z" fill="#595757"/>
<path d="M23.1729 21.2201L18.1726 23.4983C17.1319 24.0616 15.8425 23.655 15.291 22.5921C14.7396 21.5292 15.1376 20.2122 16.1783 19.649L20.594 16.2231C20.594 16.2231 25.445 11.8994 31.2621 14.0634L34.6122 15.338L39.3762 26.5473L31.3036 29.5921L23.1729 21.2201Z" fill="white"/>
<path d="M31.2994 30.5445C31.0547 30.5445 30.8143 30.4471 30.636 30.265L22.9614 22.363L18.5789 24.3575C18.1477 24.5862 17.6626 24.7048 17.1775 24.7048C16.0373 24.7048 15.0007 24.0654 14.4659 23.0405C14.0844 22.3037 14.0057 21.4568 14.2461 20.6564C14.4783 19.8857 14.98 19.2462 15.6683 18.8524L20.0052 15.4858C20.3534 15.1851 23.5584 12.5088 27.9161 12.5088C29.1641 12.5088 30.3955 12.7332 31.5771 13.1694L34.9356 14.4483C35.1719 14.5372 35.3626 14.7236 35.4663 14.9607L40.2302 26.17C40.3339 26.4114 40.3339 26.6824 40.2302 26.9238C40.1307 27.1652 39.9358 27.3515 39.6954 27.4447L31.6228 30.4894C31.5191 30.5275 31.4072 30.5487 31.2994 30.5487V30.5445ZM23.1728 20.2668C23.4175 20.2668 23.658 20.3642 23.8362 20.5463L31.544 28.4822L38.1281 25.9964L33.9156 16.0829L30.9345 14.948C29.9643 14.588 28.9443 14.4017 27.9161 14.4017C24.114 14.4017 21.2324 16.9087 21.2034 16.9341C21.1868 16.9468 21.1702 16.9595 21.1578 16.9722L16.7421 20.3981C16.7007 20.4277 16.6592 20.4574 16.6136 20.4828C16.3317 20.6352 16.1243 20.8935 16.029 21.2027C15.9336 21.516 15.9668 21.8464 16.1161 22.1343C16.4146 22.7145 17.1609 22.9516 17.7372 22.6425C17.7579 22.634 17.7745 22.6213 17.7953 22.6128L22.7955 20.3346C22.9158 20.2795 23.0485 20.2499 23.1728 20.2499V20.2668Z" fill="#595757"/>
<path d="M26.4691 23.0321C24.3421 23.0321 22.7914 22.1005 22.6878 22.037C22.2483 21.766 22.1031 21.1773 22.3726 20.7285C22.638 20.2796 23.2102 20.1356 23.6497 20.4024C23.7782 20.4786 26.7054 22.1937 29.7114 20.034C30.1343 19.7291 30.7148 19.8349 31.0091 20.2626C31.3077 20.6946 31.204 21.2874 30.7852 21.5881C29.2636 22.6807 27.7585 23.0237 26.4691 23.0237V23.0321Z" fill="#595757"/>
<path d="M0.932861 27.7037V11.4932H7.81137C7.81137 11.4932 10.1913 12.0564 10.5893 14.4532L4.50272 27.7037H0.932861Z" fill="white"/>
<path d="M4.50275 28.6562H0.93289C0.418764 28.6562 0 28.2285 0 27.7034V11.4929C0 10.9677 0.418764 10.54 0.93289 10.54H7.8114C7.88188 10.54 7.95237 10.5485 8.02285 10.5654C8.14309 10.5951 11.0164 11.3065 11.5098 14.2962C11.543 14.4868 11.5139 14.6858 11.4352 14.8595L5.34857 28.1099C5.19516 28.4445 4.86761 28.6562 4.50275 28.6562ZM1.86578 26.7506H3.90985L9.60669 14.3386C9.25012 13.0258 8.027 12.5515 7.68287 12.4414H1.86578V26.7463V26.7506Z" fill="#595757"/>
<path d="M42.0673 27.7037V11.4932H35.1888C35.1888 11.4932 32.8089 12.0564 32.4109 14.4532L38.4933 27.7037H42.0632H42.0673Z" fill="white"/>
<path d="M42.0672 28.6562H38.4974C38.1366 28.6562 37.805 28.4445 37.6515 28.1099L31.5691 14.8595C31.4903 14.6858 31.4613 14.4868 31.4945 14.2962C31.9879 11.3065 34.8612 10.5951 34.9814 10.5654C35.0519 10.5485 35.1224 10.54 35.1929 10.54H42.0714C42.5855 10.54 43.0043 10.9677 43.0043 11.4929V27.7034C43.0043 28.2285 42.5855 28.6562 42.0714 28.6562H42.0672ZM39.0903 26.7506H41.1343V12.4457H35.3172C34.9814 12.5515 33.75 13.0258 33.3934 14.3428L39.0903 26.7548V26.7506Z" fill="#595757"/>
<path d="M18.6868 11.9331C18.2971 11.9331 17.9073 11.7807 17.6088 11.4758L13.8731 7.66028C13.276 7.05048 13.276 6.06379 13.8731 5.45822C14.4701 4.84842 15.4362 4.84842 16.0291 5.45822L18.6868 8.17268L25.3082 1.40559C25.9053 0.795792 26.8713 0.795792 27.4684 1.40559C28.0654 2.01539 28.0654 3.00208 27.4684 3.60765L19.7648 11.4758C19.4663 11.7807 19.0765 11.9331 18.6868 11.9331Z" fill="#00A69E"/>
<path d="M18.6869 12.8863C18.0318 12.8863 17.414 12.6237 16.9496 12.1494L13.2139 8.33394C12.2562 7.35572 12.2562 5.76346 13.2139 4.78524C13.6783 4.31095 14.2961 4.0484 14.9512 4.0484C15.6063 4.0484 16.2241 4.31095 16.6884 4.781L18.6869 6.82214L24.6532 0.736842C25.1176 0.262553 25.7354 0 26.3905 0C27.0456 0 27.6634 0.262553 28.1277 0.736842C28.5921 1.21113 28.8492 1.84211 28.8492 2.51119C28.8492 3.18028 28.5921 3.81125 28.1277 4.28554L20.4241 12.1537C19.9598 12.6279 19.342 12.8905 18.6869 12.8905V12.8863ZM14.9512 5.95402C14.7936 5.95402 14.6444 6.01754 14.5324 6.13188C14.4205 6.24622 14.3583 6.39867 14.3583 6.55959C14.3583 6.72051 14.4205 6.87296 14.5324 6.9873L18.2681 10.8028C18.492 11.0315 18.8818 11.0315 19.1056 10.8028L26.8092 2.93466C26.9212 2.82033 26.9834 2.66788 26.9834 2.50696C26.9834 2.34604 26.9212 2.19359 26.8092 2.07925C26.5854 1.85057 26.1956 1.85057 25.9717 2.07925L19.3503 8.8421C19.1761 9.01996 18.9398 9.1216 18.691 9.1216C18.4423 9.1216 18.2059 9.01996 18.0318 8.8421L15.3741 6.12765C15.2621 6.01331 15.1129 5.94979 14.9553 5.94979L14.9512 5.95402Z" fill="#595757"/>
</g>
<defs>
<clipPath id="clip0_8049_3369">
<rect width="43" height="42" fill="white"/>
</clipPath>
</defs>
</svg>
