<svg width="35" height="32" viewBox="0 0 35 32" fill="none" xmlns="http://www.w3.org/2000/svg">
<g clip-path="url(#clip0_8049_3323)">
<path d="M28.6583 24.7951C33.5268 19.7311 33.5268 11.5208 28.6583 6.45686C23.7899 1.3929 15.8965 1.3929 11.028 6.45686C6.15956 11.5208 6.15957 19.7311 11.028 24.7951C15.8965 29.8591 23.7898 29.8591 28.6583 24.7951Z" fill="#EFEFEF"/>
<path d="M25.2704 0.790039L27.6395 3.25428L0.759277 31.2104H9.23339L31.8749 7.65972L34.2406 10.1204V0.790039H25.2704Z" fill="white"/>
<path d="M9.23346 32.0004H0.759353C0.452247 32.0004 0.175513 31.8073 0.0573955 31.5125C-0.0607223 31.2176 0.00339879 30.8771 0.22276 30.6524L26.563 3.25445L24.7339 1.35187C24.5179 1.12721 24.4504 0.786706 24.5685 0.491839C24.6867 0.196973 24.9634 0.00390625 25.2705 0.00390625H34.2407C34.6592 0.00390625 35 0.358448 35 0.793726V10.1241C35 10.4436 34.8144 10.7314 34.5309 10.8543C34.2474 10.9771 33.9201 10.9104 33.7041 10.6823L31.875 8.77968L9.77006 31.7687C9.62831 31.9161 9.43595 32.0004 9.23346 32.0004ZM2.59187 30.4208H8.91623L31.3384 7.10176C31.6219 6.80689 32.1281 6.80689 32.4116 7.10176L33.4814 8.21452V1.58004H27.103L28.1728 2.6928C28.4698 3.00171 28.4698 3.50018 28.1728 3.80908L2.59187 30.4208Z" fill="#00A69E"/>
<path d="M11.1808 12.7462C9.71277 12.7462 8.33247 12.1494 7.29304 11.0717C5.15004 8.8427 5.15004 5.21304 7.29304 2.98399C8.33247 1.90281 9.71277 1.30957 11.1808 1.30957C12.6488 1.30957 14.0291 1.90632 15.0686 2.98399C16.108 4.06516 16.6783 5.50088 16.6783 7.02787C16.6783 8.55485 16.108 9.99057 15.0686 11.0717C14.0291 12.1529 12.6488 12.7462 11.1808 12.7462ZM11.1808 4.25823C10.4687 4.25823 9.80051 4.54608 9.29766 5.06911C8.25823 6.15029 8.25823 7.90545 9.29766 8.98662C9.80051 9.50966 10.4687 9.7975 11.1808 9.7975C11.8929 9.7975 12.5611 9.50966 13.0639 8.98662C13.5668 8.46358 13.8435 7.76854 13.8435 7.02787C13.8435 6.28719 13.5668 5.59215 13.0639 5.06911C12.5611 4.54608 11.8929 4.25823 11.1808 4.25823Z" fill="white"/>
<path d="M11.1807 13.5358C9.51022 13.5358 7.93756 12.8583 6.75638 11.6297C5.57521 10.4011 4.92725 8.76876 4.92725 7.02765C4.92725 5.28653 5.57858 3.65073 6.75638 2.42563C7.93756 1.19702 9.51022 0.519531 11.1807 0.519531C12.8513 0.519531 14.4239 1.19702 15.6051 2.42563C16.7863 3.65424 17.4376 5.29005 17.4376 7.02765C17.4376 8.76525 16.7863 10.4011 15.6051 11.6297C14.4239 12.8583 12.8513 13.5358 11.1807 13.5358ZM11.1807 2.09566C9.91519 2.09566 8.72389 2.60817 7.82957 3.5384C6.93525 4.46863 6.4459 5.70426 6.4459 7.02414C6.4459 8.34402 6.93862 9.57965 7.82957 10.5099C8.72389 11.4401 9.91519 11.9526 11.1807 11.9526C12.4463 11.9526 13.6376 11.4401 14.5319 10.5099C15.4262 9.57965 15.919 8.34051 15.919 7.02414C15.919 5.70777 15.4262 4.46863 14.5319 3.5384C13.6376 2.60817 12.4463 2.09566 11.1807 2.09566ZM11.1807 10.5836C10.2662 10.5836 9.40897 10.215 8.76101 9.54103C7.42797 8.15446 7.42797 5.89382 8.76101 4.50725C9.40897 3.83678 10.2662 3.46468 11.1807 3.46468C12.0953 3.46468 12.9525 3.83327 13.6005 4.50725C14.2451 5.17771 14.6028 6.07284 14.6028 7.02414C14.6028 7.97543 14.2484 8.87056 13.6005 9.54103C12.9559 10.2115 12.0953 10.5836 11.1807 10.5836ZM11.1807 5.04783C10.6711 5.04783 10.1953 5.25494 9.8342 5.62704C9.09174 6.3993 9.09174 7.65599 9.8342 8.42475C10.1919 8.79685 10.6711 9.00395 11.1807 9.00395C11.6903 9.00395 12.1662 8.79685 12.5273 8.42475C12.885 8.05266 13.0841 7.5542 13.0841 7.02414C13.0841 6.49408 12.885 5.99913 12.5273 5.62704C12.1662 5.25143 11.6903 5.04783 11.1807 5.04783Z" fill="#595757"/>
<path d="M28.1222 30.3712C26.6542 30.3712 25.2739 29.7744 24.2344 28.6967C22.0914 26.4677 22.0914 22.838 24.2344 20.609C25.2739 19.5278 26.6542 18.9346 28.1222 18.9346C29.5902 18.9346 30.9739 19.5313 32.01 20.609C34.153 22.838 34.153 26.4677 32.01 28.6967C30.9705 29.7779 29.5902 30.3712 28.1222 30.3712ZM28.1222 21.8797C27.4101 21.8797 26.7419 22.1676 26.2391 22.6906C25.1996 23.7718 25.1996 25.5269 26.2391 26.6081C26.7419 27.1311 27.4101 27.419 28.1222 27.419C28.8343 27.419 29.5025 27.1311 30.0053 26.6081C31.0448 25.5304 31.0448 23.7718 30.0053 22.6906C29.5025 22.1676 28.8343 21.8797 28.1222 21.8797Z" fill="white"/>
<path d="M28.1223 31.1613C26.4517 31.1613 24.8791 30.4839 23.6979 29.2552C21.2579 26.7173 21.2579 22.5857 23.6979 20.0477C24.8791 18.8191 26.4517 18.1416 28.1223 18.1416C29.7928 18.1416 31.3654 18.8191 32.5466 20.0477C34.9866 22.5857 34.9866 26.7173 32.5466 29.2552C31.3654 30.4839 29.7928 31.1613 28.1223 31.1613ZM28.1223 19.7177C26.8567 19.7177 25.6654 20.2302 24.7711 21.1605C22.9217 23.0841 22.9217 26.2118 24.7711 28.1319C25.6654 29.0622 26.8567 29.5747 28.1223 29.5747C29.3878 29.5747 30.5791 29.0622 31.4734 28.1319C33.3228 26.2083 33.3228 23.0806 31.4734 21.1605C30.5791 20.2302 29.3878 19.7177 28.1223 19.7177ZM28.1223 28.2092C27.2077 28.2092 26.3505 27.8406 25.7025 27.1666C25.0579 26.4961 24.7002 25.601 24.7002 24.6497C24.7002 23.6984 25.0546 22.8033 25.7025 22.1328C26.3471 21.4624 27.2077 21.0903 28.1223 21.0903C29.0368 21.0903 29.894 21.4588 30.542 22.1328C31.1866 22.8033 31.5443 23.6984 31.5443 24.6497C31.5443 25.601 31.1899 26.4961 30.542 27.1666C29.8974 27.8371 29.0368 28.2092 28.1223 28.2092ZM28.1223 22.6699C27.6127 22.6699 27.1368 22.877 26.7757 23.2491C26.418 23.6212 26.2189 24.1197 26.2189 24.6497C26.2189 25.1798 26.4146 25.6747 26.7757 26.0503C27.1334 26.4259 27.6127 26.6295 28.1223 26.6295C28.6319 26.6295 29.1077 26.4224 29.4688 26.0503C29.8265 25.6782 30.0256 25.1798 30.0256 24.6497C30.0256 24.1197 29.8265 23.6212 29.4688 23.2491C29.1111 22.877 28.6319 22.6699 28.1223 22.6699Z" fill="#595757"/>
</g>
<defs>
<clipPath id="clip0_8049_3323">
<rect width="35" height="32" fill="white"/>
</clipPath>
</defs>
</svg>
