<svg width="136" height="30" viewBox="0 0 136 30" fill="none" xmlns="http://www.w3.org/2000/svg">
<path d="M37.0096 6.70467V4.5H40.2678V6.70467H44.6201V8.7934H42.3394C43.3633 10.0224 44.0143 11.763 44.038 13.7806C44.0142 17.7021 41.8038 20.6243 38.6381 20.6243C35.3799 20.648 33.2157 17.7021 33.2157 13.7806C33.2157 11.763 33.8667 10.0224 34.8906 8.7934H32.75V6.70467H37.0096ZM38.6381 8.8395C37.3577 8.8395 36.3337 10.7873 36.3575 13.7806C36.3337 16.6341 37.3351 18.5369 38.6156 18.5369C39.9186 18.5369 40.8962 16.6803 40.8962 13.7806C40.8962 10.6488 39.965 8.8395 38.6381 8.8395ZM49.8572 12.9683V25.4967H46.7141V4.5H49.8572V10.8809H52.8826V12.9683H49.8572ZM58.7363 17.3765H64.0196C65.4392 17.3765 66.5106 17.4464 67.8374 16.7501V4.5H70.9792V10.8809H74.0046V12.9683H70.9792V25.4967H67.8374V18.8388C66.7434 19.3254 65.2764 19.4651 63.9497 19.4651H56.9901C55.6169 19.4651 54.5704 18.1426 54.5704 16.588V5.42833H57.7123V16.518C57.7123 17.0521 58.0616 17.3765 58.7363 17.3765ZM80.3512 12.9683H75.9289V10.8809H80.957C81.0971 10.1385 81.1672 9.39601 81.1672 8.60744V7.74903H75.9289V5.6603H84.4254V8.00364C84.4016 13.7344 81.2362 18.7689 75.6972 20.0217V17.9105C77.8852 16.9585 79.4674 15.173 80.3512 12.9683ZM89.4286 13.0843V25.4967H86.4031V4.5H89.4286V10.9969H90.9419V4.5H93.9673V25.4967H90.9419V13.0844L89.4286 13.0843ZM96.691 19.4652V17.3765H98.5523V7.74913H96.8074V5.6604H108.328V7.74913H106.582V13.3402C106.582 15.057 106.419 16.6342 106.164 17.3766H106.233C107.909 17.3766 109.259 17.4003 110.539 16.6579V4.5H113.682V25.4967H110.539V18.7228C109.422 19.3018 107.816 19.4652 106.28 19.4652H96.691ZM101.694 17.3765H103.022C103.348 16.5642 103.44 15.1031 103.44 13.3401V7.74903H101.694V17.3765ZM116.566 4.96412H126.457V7.05285H119.708V8.7934H126.225V10.8809H119.708V11.8777C119.708 12.4118 120.057 12.7362 120.731 12.7362H126.249C127.622 12.7362 128.646 12.7362 129.833 12.1335V4.5H132.974V8.328H136.001V10.4167H132.974V15.5212H129.833V14.1512C128.739 14.6627 127.552 14.8249 126.179 14.8249H118.987C117.613 14.8249 116.566 13.5024 116.566 11.9477V4.96412ZM133.231 25.7287H121.686C120.406 25.7287 119.266 24.4062 119.266 22.8989V20.114H129.833V18.7454H119.266V16.6579H132.998V20.2301C132.998 21.2745 132.276 22.2028 131.461 22.2028H122.408V22.8291C122.408 23.3157 122.757 23.6414 123.363 23.6414H133.231V25.7287Z" fill="#008D70"/>
<path d="M11.5547 2.87602C11.5547 4.42477 12.8138 5.68229 14.3687 5.68229C15.9235 5.68229 17.1839 4.42477 17.1839 2.87602C17.1839 2.64515 17.1292 2.41309 17.0342 2.2023C16.7895 1.69198 16.521 1.44458 16.5447 0.833575C16.5827 0.010681 15.522 0 14.9507 0C14.3306 0 13.6667 0.0852655 13.1071 0.366988C12.6564 0.593067 12.2743 0.934776 12.0001 1.35694C11.7198 1.7903 11.5666 2.29468 11.5547 2.81093V2.87602Z" fill="#D70C18"/>
<path d="M28.6546 6.36922C28.4515 6.0602 28.0452 6.05901 27.2898 6.19869C26.1791 6.40473 22.8675 7.07489 17.6185 7.25492C15.2071 7.33772 12.5631 7.34256 9.90118 7.10566C7.72628 6.91267 3.61157 6.252 2.69336 6.16199C2.19928 6.10995 1.07675 6.03418 0.501793 6.51364C-0.258341 7.14354 -0.0422067 8.08137 0.409203 8.82968C0.409203 8.82968 1.40699 10.4269 3.71377 10.8981C7.06221 11.4511 12.2472 11.3055 13.9553 11.1161C17.7527 10.7655 20.6807 10.2186 23.0018 9.58858C23.0018 9.58858 26.0984 8.70297 27.6105 7.85515C28.1807 7.53545 28.9943 6.92335 28.6546 6.36922ZM17.318 13.2047C15.4269 12.1829 13.1785 12.1769 11.3159 13.239C8.31781 14.9488 7.26891 18.7165 9.05541 21.7926C10.5176 24.073 12.4704 23.5271 13.0263 22.9494C13.7236 22.1797 13.4599 21.3865 13.0904 20.8915C12.3326 19.9573 12.2554 19.3191 12.2554 18.9248C12.2554 17.7147 13.2402 16.7344 14.4541 16.7344C15.0932 16.7344 15.7097 17.0185 16.1254 17.5027C16.7038 18.1824 16.7751 19.1592 16.7335 19.9396C16.4782 24.6272 14.5622 28.6683 14.4636 28.9631C14.3781 29.1786 14.2332 29.7138 14.6395 29.9341C14.9494 30.088 15.3141 29.9471 15.6716 29.6322C16.5554 28.8803 18.2611 26.7538 19.1698 24.665C19.6604 23.5403 20.8707 20.5552 20.4764 17.5785C20.0713 15.2815 18.5972 13.8949 17.318 13.2047Z" fill="#008D70"/>
</svg>
